<svg width="275" height="275" viewBox="0 0 275 275" fill="none" xmlns="http://www.w3.org/2000/svg">
<mask id="path-1-inside-1_138_739" fill="white">
<path d="M37.1803 84.0042C25.5784 77.8174 21.0404 63.2291 29.1335 52.8666C43.7665 34.1303 63.0997 19.3949 85.3469 10.275C107.594 1.15506 131.707 -1.9198 155.281 1.15417C168.319 2.8543 175.327 16.4303 171.406 28.9804V28.9804C167.485 41.5305 154.05 48.1779 140.912 47.6792C128.168 47.1955 115.375 49.4255 103.407 54.3314C91.4397 59.2373 80.7621 66.629 72.0251 75.9182C63.0168 85.4959 48.7823 90.1909 37.1803 84.0042V84.0042Z"/>
</mask>
<path d="M37.1803 84.0042C25.5784 77.8174 21.0404 63.2291 29.1335 52.8666C43.7665 34.1303 63.0997 19.3949 85.3469 10.275C107.594 1.15506 131.707 -1.9198 155.281 1.15417C168.319 2.8543 175.327 16.4303 171.406 28.9804V28.9804C167.485 41.5305 154.05 48.1779 140.912 47.6792C128.168 47.1955 115.375 49.4255 103.407 54.3314C91.4397 59.2373 80.7621 66.629 72.0251 75.9182C63.0168 85.4959 48.7823 90.1909 37.1803 84.0042V84.0042Z" stroke="#58E86D" stroke-width="50" mask="url(#path-1-inside-1_138_739)"/>
<mask id="path-2-inside-2_138_739" fill="white">
<path d="M179.205 31.7321C184.028 19.5002 198.003 13.328 209.221 20.1862C225.687 30.2529 239.928 43.7223 250.936 59.7905C261.943 75.8586 269.36 94.0035 272.8 112.994C275.143 125.932 264.34 136.734 251.192 136.814V136.814C238.043 136.893 227.627 126.115 224.108 113.447C221.473 103.958 217.282 94.9139 211.655 86.7003C206.028 78.4867 199.109 71.3119 191.212 65.4271C180.669 57.5702 174.382 43.964 179.205 31.7321V31.7321Z"/>
</mask>
<path d="M179.205 31.7321C184.028 19.5002 198.003 13.328 209.221 20.1862C225.687 30.2529 239.928 43.7223 250.936 59.7905C261.943 75.8586 269.36 94.0035 272.8 112.994C275.143 125.932 264.34 136.734 251.192 136.814V136.814C238.043 136.893 227.627 126.115 224.108 113.447C221.473 103.958 217.282 94.9139 211.655 86.7003C206.028 78.4867 199.109 71.3119 191.212 65.4271C180.669 57.5702 174.382 43.964 179.205 31.7321V31.7321Z" stroke="#58E86D" stroke-width="50" mask="url(#path-2-inside-2_138_739)"/>
<path d="M3.22684 107.886C6.05872 95.0465 20.195 89.251 32.3548 94.2523C44.5145 99.2539 49.9645 113.217 48.3206 126.262L48.2093 127.18C47.6784 131.773 47.5009 136.412 47.6849 141.057C48.1964 153.974 51.4888 166.629 57.3362 178.159C63.1837 189.688 71.449 199.821 81.5686 207.865C91.6883 215.909 103.425 221.675 115.976 224.771C128.527 227.866 141.599 228.218 154.298 225.802C166.601 223.462 178.275 218.577 188.573 211.466L189.565 210.772C199.773 203.518 208.35 194.212 214.748 183.457L215.361 182.412C217.683 178.386 219.684 174.196 221.35 169.883L221.679 169.019C226.289 156.706 237.607 146.878 250.698 148.104C263.789 149.33 273.608 161.034 270.145 173.718L269.85 174.78C266.765 185.732 262.323 196.291 256.606 206.203L255.669 207.802C245.881 224.255 232.761 238.489 217.145 249.585L215.627 250.648C199.874 261.525 182.016 268.997 163.197 272.577C144.377 276.158 125.023 275.765 106.376 271.432L104.574 271C85.9747 266.413 68.5448 257.991 53.3997 246.282L51.9407 245.138C36.944 233.217 24.6096 218.298 15.721 201.343L14.8714 199.697C6.20583 182.611 1.20886 163.909 0.193641 144.792L0.107703 142.942C-0.359716 131.139 0.696865 119.357 3.22684 107.886Z" fill="#58E86D"/>
</svg>
