<svg width="227" height="84" viewBox="0 0 227 84" fill="none" xmlns="http://www.w3.org/2000/svg">
<rect x="10.5" y="8.5" width="207" height="67" rx="33.5" fill="#6DFF82"/>
<rect x="10.5" y="8.5" width="207" height="67" rx="33.5" stroke="#141512" stroke-width="3"/>
<rect x="10.5" y="8.5" width="207" height="67" rx="33.5" stroke="white" stroke-opacity="0.2" stroke-width="3"/>
<rect x="1.5" y="1.5" width="224" height="81" rx="40.5" stroke="#141512" stroke-width="3" stroke-dasharray="6 6"/>
<rect x="1.5" y="1.5" width="224" height="81" rx="40.5" stroke="white" stroke-opacity="0.2" stroke-width="3" stroke-dasharray="6 6"/>
<path d="M40.375 28.1831V55.8159C40.3752 55.8759 40.3931 55.9344 40.4264 55.9843C40.4597 56.0341 40.507 56.073 40.5624 56.096C40.6177 56.1191 40.6786 56.1253 40.7375 56.1138C40.7963 56.1024 40.8505 56.0739 40.8932 56.0318L55.2812 42.0002L40.8932 27.9672C40.8505 27.9251 40.7963 27.8966 40.7375 27.8852C40.6786 27.8737 40.6177 27.8799 40.5624 27.903C40.507 27.926 40.4597 27.9649 40.4264 28.0148C40.3931 28.0646 40.3752 28.1231 40.375 28.1831ZM61.3141 36.2346L43.2733 26.2952L43.262 26.2889C42.9512 26.1201 42.6559 26.5406 42.9105 26.7853L57.0524 40.3078L61.3141 36.2346ZM42.9119 57.2151C42.6559 57.4598 42.9513 57.8803 43.2634 57.7115L43.2747 57.7052L61.3141 47.7658L57.0524 43.6912L42.9119 57.2151ZM68.597 40.2424L63.5591 37.4679L58.8222 42.0002L63.5591 46.5304L68.597 43.758C69.9674 43.0008 69.9674 40.9997 68.597 40.2424Z" fill="black"/>
<path d="M90.936 31.06C90.72 30.644 90.42 30.332 90.036 30.124C89.652 29.908 89.208 29.8 88.704 29.8C88.152 29.8 87.66 29.924 87.228 30.172C86.796 30.42 86.456 30.772 86.208 31.228C85.968 31.684 85.848 32.212 85.848 32.812C85.848 33.412 85.968 33.944 86.208 34.408C86.456 34.864 86.796 35.216 87.228 35.464C87.66 35.712 88.152 35.836 88.704 35.836C89.448 35.836 90.052 35.628 90.516 35.212C90.98 34.796 91.264 34.232 91.368 33.52H88.236V32.428H92.832V33.496C92.744 34.144 92.512 34.74 92.136 35.284C91.768 35.828 91.284 36.264 90.684 36.592C90.092 36.912 89.432 37.072 88.704 37.072C87.92 37.072 87.204 36.892 86.556 36.532C85.908 36.164 85.392 35.656 85.008 35.008C84.632 34.36 84.444 33.628 84.444 32.812C84.444 31.996 84.632 31.264 85.008 30.616C85.392 29.968 85.908 29.464 86.556 29.104C87.212 28.736 87.928 28.552 88.704 28.552C89.592 28.552 90.38 28.772 91.068 29.212C91.764 29.644 92.268 30.26 92.58 31.06H90.936ZM95.1893 29.764V32.212H98.0693V33.328H95.1893V35.884H98.4293V37H93.8213V28.648H98.4293V29.764H95.1893ZM105.142 28.66V29.776H102.922V37H101.554V29.776H99.3222V28.66H105.142ZM110.293 28.66V37H108.925V28.66H110.293ZM117.117 28.66V29.776H114.897V37H113.529V29.776H111.297V28.66H117.117ZM124.704 37.084C123.928 37.084 123.212 36.904 122.556 36.544C121.908 36.176 121.392 35.668 121.008 35.02C120.632 34.364 120.444 33.628 120.444 32.812C120.444 31.996 120.632 31.264 121.008 30.616C121.392 29.968 121.908 29.464 122.556 29.104C123.212 28.736 123.928 28.552 124.704 28.552C125.488 28.552 126.204 28.736 126.852 29.104C127.508 29.464 128.024 29.968 128.4 30.616C128.776 31.264 128.964 31.996 128.964 32.812C128.964 33.628 128.776 34.364 128.4 35.02C128.024 35.668 127.508 36.176 126.852 36.544C126.204 36.904 125.488 37.084 124.704 37.084ZM124.704 35.896C125.256 35.896 125.748 35.772 126.18 35.524C126.612 35.268 126.948 34.908 127.188 34.444C127.436 33.972 127.56 33.428 127.56 32.812C127.56 32.196 127.436 31.656 127.188 31.192C126.948 30.728 126.612 30.372 126.18 30.124C125.748 29.876 125.256 29.752 124.704 29.752C124.152 29.752 123.66 29.876 123.228 30.124C122.796 30.372 122.456 30.728 122.208 31.192C121.968 31.656 121.848 32.196 121.848 32.812C121.848 33.428 121.968 33.972 122.208 34.444C122.456 34.908 122.796 35.268 123.228 35.524C123.66 35.772 124.152 35.896 124.704 35.896ZM136.802 37H135.434L131.318 30.772V37H129.95V28.648H131.318L135.434 34.864V28.648H136.802V37Z" fill="black"/>
<path d="M90.52 55.24C89.2 55.24 88.04 54.94 87.04 54.34C86.0533 53.74 85.2867 52.9067 84.74 51.84C84.1933 50.76 83.92 49.5 83.92 48.06C83.92 46.6333 84.2 45.3733 84.76 44.28C85.32 43.1733 86.12 42.3133 87.16 41.7C88.2133 41.0733 89.46 40.76 90.9 40.76C92.5267 40.76 93.8733 41.1533 94.94 41.94C96.02 42.7133 96.72 43.7933 97.04 45.18H94.34C94.14 44.4867 93.7467 43.9467 93.16 43.56C92.5733 43.1733 91.8133 42.98 90.88 42.98C89.9333 42.98 89.12 43.1867 88.44 43.6C87.7733 44 87.26 44.5867 86.9 45.36C86.5533 46.12 86.38 47.0267 86.38 48.08C86.38 49.1333 86.5533 50.04 86.9 50.8C87.26 51.56 87.7667 52.14 88.42 52.54C89.0733 52.9267 89.84 53.12 90.72 53.12C92.0267 53.12 93.0133 52.7533 93.68 52.02C94.3467 51.2867 94.74 50.3333 94.86 49.16H91.24V47.34H97.28V55H95.08L94.88 53.08C94.5733 53.5333 94.22 53.9267 93.82 54.26C93.42 54.58 92.9467 54.8267 92.4 55C91.8667 55.16 91.24 55.24 90.52 55.24ZM103.889 55.24C102.929 55.24 102.063 55.02 101.289 54.58C100.529 54.1267 99.9292 53.5067 99.4892 52.72C99.0626 51.92 98.8492 51.0067 98.8492 49.98C98.8492 48.9267 99.0692 48.0067 99.5092 47.22C99.9492 46.42 100.549 45.8 101.309 45.36C102.083 44.9067 102.949 44.68 103.909 44.68C104.869 44.68 105.729 44.9067 106.489 45.36C107.263 45.8 107.863 46.4133 108.289 47.2C108.729 47.9867 108.949 48.9067 108.949 49.96C108.949 51.0133 108.729 51.9333 108.289 52.72C107.849 53.5067 107.243 54.1267 106.469 54.58C105.709 55.02 104.849 55.24 103.889 55.24ZM103.889 53.18C104.369 53.18 104.803 53.06 105.189 52.82C105.589 52.58 105.909 52.22 106.149 51.74C106.389 51.26 106.509 50.6667 106.509 49.96C106.509 49.2533 106.389 48.6667 106.149 48.2C105.923 47.72 105.609 47.36 105.209 47.12C104.823 46.88 104.389 46.76 103.909 46.76C103.443 46.76 103.009 46.88 102.609 47.12C102.209 47.36 101.889 47.72 101.649 48.2C101.409 48.6667 101.289 49.2533 101.289 49.96C101.289 50.6667 101.409 51.26 101.649 51.74C101.889 52.22 102.203 52.58 102.589 52.82C102.989 53.06 103.423 53.18 103.889 53.18ZM115.399 55.24C114.439 55.24 113.572 55.02 112.799 54.58C112.039 54.1267 111.439 53.5067 110.999 52.72C110.572 51.92 110.359 51.0067 110.359 49.98C110.359 48.9267 110.579 48.0067 111.019 47.22C111.459 46.42 112.059 45.8 112.819 45.36C113.592 44.9067 114.459 44.68 115.419 44.68C116.379 44.68 117.239 44.9067 117.999 45.36C118.772 45.8 119.372 46.4133 119.799 47.2C120.239 47.9867 120.459 48.9067 120.459 49.96C120.459 51.0133 120.239 51.9333 119.799 52.72C119.359 53.5067 118.752 54.1267 117.979 54.58C117.219 55.02 116.359 55.24 115.399 55.24ZM115.399 53.18C115.879 53.18 116.312 53.06 116.699 52.82C117.099 52.58 117.419 52.22 117.659 51.74C117.899 51.26 118.019 50.6667 118.019 49.96C118.019 49.2533 117.899 48.6667 117.659 48.2C117.432 47.72 117.119 47.36 116.719 47.12C116.332 46.88 115.899 46.76 115.419 46.76C114.952 46.76 114.519 46.88 114.119 47.12C113.719 47.36 113.399 47.72 113.159 48.2C112.919 48.6667 112.799 49.2533 112.799 49.96C112.799 50.6667 112.919 51.26 113.159 51.74C113.399 52.22 113.712 52.58 114.099 52.82C114.499 53.06 114.932 53.18 115.399 53.18ZM125.862 59.64C124.915 59.64 124.082 59.52 123.362 59.28C122.655 59.0533 122.102 58.7 121.702 58.22C121.315 57.7533 121.122 57.1667 121.122 56.46C121.122 56.0467 121.222 55.64 121.422 55.24C121.635 54.8533 121.949 54.4933 122.362 54.16C122.789 53.8133 123.329 53.5133 123.982 53.26L125.042 54.42C124.402 54.6467 123.955 54.92 123.702 55.24C123.449 55.56 123.322 55.8867 123.322 56.22C123.322 56.5667 123.429 56.8533 123.642 57.08C123.869 57.32 124.169 57.5 124.542 57.62C124.929 57.74 125.362 57.8 125.842 57.8C126.309 57.8 126.715 57.7333 127.062 57.6C127.409 57.48 127.675 57.3067 127.862 57.08C128.062 56.8533 128.162 56.58 128.162 56.26C128.162 55.86 128.022 55.5333 127.742 55.28C127.462 55.04 126.909 54.8933 126.082 54.84C125.375 54.7867 124.755 54.7133 124.222 54.62C123.689 54.5133 123.229 54.3933 122.842 54.26C122.469 54.1267 122.149 53.98 121.882 53.82C121.615 53.6467 121.395 53.4733 121.222 53.3V52.84L123.322 50.64L125.102 51.22L122.742 53.52L123.362 52.36C123.495 52.4533 123.629 52.54 123.762 52.62C123.909 52.7 124.089 52.7733 124.302 52.84C124.529 52.8933 124.822 52.9467 125.182 53C125.542 53.0533 126.009 53.1067 126.582 53.16C127.475 53.2267 128.202 53.3867 128.762 53.64C129.322 53.8933 129.735 54.2333 130.002 54.66C130.269 55.0867 130.402 55.6 130.402 56.2C130.402 56.7867 130.235 57.34 129.902 57.86C129.582 58.38 129.089 58.8067 128.422 59.14C127.755 59.4733 126.902 59.64 125.862 59.64ZM125.862 51.98C125.022 51.98 124.295 51.82 123.682 51.5C123.082 51.1667 122.622 50.7267 122.302 50.18C121.982 49.62 121.822 49.0067 121.822 48.34C121.822 47.66 121.982 47.0467 122.302 46.5C122.622 45.9533 123.082 45.5133 123.682 45.18C124.295 44.8467 125.022 44.68 125.862 44.68C126.702 44.68 127.422 44.8467 128.022 45.18C128.622 45.5133 129.082 45.9533 129.402 46.5C129.722 47.0467 129.882 47.66 129.882 48.34C129.882 49.0067 129.722 49.62 129.402 50.18C129.082 50.7267 128.622 51.1667 128.022 51.5C127.422 51.82 126.702 51.98 125.862 51.98ZM125.862 50.12C126.435 50.12 126.895 49.9667 127.242 49.66C127.589 49.3533 127.762 48.9133 127.762 48.34C127.762 47.7667 127.589 47.3333 127.242 47.04C126.895 46.7333 126.435 46.58 125.862 46.58C125.289 46.58 124.822 46.7333 124.462 47.04C124.102 47.3333 123.922 47.7667 123.922 48.34C123.922 48.9133 124.102 49.3533 124.462 49.66C124.822 49.9667 125.289 50.12 125.862 50.12ZM127.522 46.68L127.062 44.92H131.202V46.42L127.522 46.68ZM132.721 55V40.6H135.121V55H132.721ZM141.919 55.24C140.919 55.24 140.039 55.0267 139.279 54.6C138.519 54.16 137.926 53.5467 137.499 52.76C137.073 51.9733 136.859 51.0667 136.859 50.04C136.859 48.9733 137.066 48.04 137.479 47.24C137.906 46.44 138.499 45.8133 139.259 45.36C140.033 44.9067 140.926 44.68 141.939 44.68C142.926 44.68 143.786 44.9 144.519 45.34C145.253 45.78 145.819 46.3733 146.219 47.12C146.619 47.8533 146.819 48.68 146.819 49.6C146.819 49.7333 146.819 49.88 146.819 50.04C146.819 50.2 146.806 50.3667 146.779 50.54H138.579V49H144.399C144.373 48.2667 144.126 47.6933 143.659 47.28C143.193 46.8533 142.613 46.64 141.919 46.64C141.426 46.64 140.973 46.7533 140.559 46.98C140.146 47.2067 139.819 47.5467 139.579 48C139.339 48.44 139.219 49 139.219 49.68V50.26C139.219 50.8867 139.333 51.4267 139.559 51.88C139.799 52.3333 140.119 52.68 140.519 52.92C140.933 53.1467 141.393 53.26 141.899 53.26C142.459 53.26 142.919 53.14 143.279 52.9C143.653 52.66 143.926 52.34 144.099 51.94H146.539C146.353 52.5667 146.046 53.1333 145.619 53.64C145.193 54.1333 144.666 54.5267 144.039 54.82C143.413 55.1 142.706 55.24 141.919 55.24ZM152.798 55V41H157.838C158.958 41 159.885 41.1933 160.618 41.58C161.351 41.9533 161.898 42.46 162.258 43.1C162.618 43.74 162.798 44.4733 162.798 45.3C162.798 46.0733 162.625 46.7867 162.278 47.44C161.931 48.08 161.391 48.6 160.658 49C159.925 49.3867 158.985 49.58 157.838 49.58H155.198V55H152.798ZM155.198 47.62H157.698C158.645 47.62 159.325 47.4133 159.738 47C160.151 46.5733 160.358 46.0067 160.358 45.3C160.358 44.5667 160.151 43.9933 159.738 43.58C159.325 43.1667 158.645 42.96 157.698 42.96H155.198V47.62ZM164.188 55V40.6H166.588V55H164.188ZM172.027 55.24C171.2 55.24 170.513 55.1 169.967 54.82C169.42 54.54 169.013 54.1667 168.747 53.7C168.48 53.2333 168.347 52.7267 168.347 52.18C168.347 51.54 168.507 50.9867 168.827 50.52C169.16 50.0533 169.647 49.6933 170.287 49.44C170.927 49.1733 171.713 49.04 172.647 49.04H175.187C175.187 48.5067 175.113 48.0667 174.967 47.72C174.82 47.36 174.593 47.0933 174.287 46.92C173.98 46.7467 173.587 46.66 173.107 46.66C172.56 46.66 172.093 46.7867 171.707 47.04C171.32 47.28 171.08 47.6533 170.987 48.16H168.627C168.707 47.44 168.947 46.8267 169.347 46.32C169.747 45.8 170.273 45.4 170.927 45.12C171.593 44.8267 172.32 44.68 173.107 44.68C174.053 44.68 174.86 44.8467 175.527 45.18C176.193 45.5 176.7 45.9667 177.047 46.58C177.407 47.18 177.587 47.9067 177.587 48.76V55H175.547L175.307 53.38C175.173 53.6467 175 53.8933 174.787 54.12C174.587 54.3467 174.353 54.5467 174.087 54.72C173.82 54.88 173.513 55.0067 173.167 55.1C172.833 55.1933 172.453 55.24 172.027 55.24ZM172.567 53.34C172.953 53.34 173.293 53.2733 173.587 53.14C173.893 52.9933 174.153 52.7933 174.367 52.54C174.593 52.2733 174.767 51.98 174.887 51.66C175.007 51.34 175.087 51 175.127 50.64V50.6H172.907C172.44 50.6 172.053 50.66 171.747 50.78C171.44 50.8867 171.22 51.0467 171.087 51.26C170.953 51.4733 170.887 51.72 170.887 52C170.887 52.28 170.953 52.52 171.087 52.72C171.22 52.92 171.413 53.0733 171.667 53.18C171.92 53.2867 172.22 53.34 172.567 53.34ZM180.439 59.4L182.899 53.88H182.299L178.279 44.92H180.899L183.899 51.76L186.739 44.92H189.279L182.979 59.4H180.439Z" fill="black"/>
</svg>
