<svg width="227" height="84" viewBox="0 0 227 84" fill="none" xmlns="http://www.w3.org/2000/svg">
<rect x="10.5" y="8.5" width="207" height="67" rx="33.5" fill="#6DFF82"/>
<rect x="10.5" y="8.5" width="207" height="67" rx="33.5" stroke="#141512" stroke-width="3"/>
<rect x="10.5" y="8.5" width="207" height="67" rx="33.5" stroke="white" stroke-opacity="0.2" stroke-width="3"/>
<rect x="1.5" y="1.5" width="224" height="81" rx="40.5" stroke="#141512" stroke-width="3" stroke-dasharray="6 6"/>
<rect x="1.5" y="1.5" width="224" height="81" rx="40.5" stroke="white" stroke-opacity="0.2" stroke-width="3" stroke-dasharray="6 6"/>
<path d="M85.12 50.24C84.1067 50.24 83.2067 50.06 82.42 49.7C81.6333 49.34 81.02 48.8267 80.58 48.16C80.14 47.4933 79.9133 46.7 79.9 45.78H82.44C82.44 46.2467 82.5467 46.6667 82.76 47.04C82.9867 47.4 83.2933 47.6867 83.68 47.9C84.08 48.1133 84.56 48.22 85.12 48.22C85.6 48.22 86.0133 48.1467 86.36 48C86.72 47.84 86.9933 47.62 87.18 47.34C87.38 47.0467 87.48 46.7067 87.48 46.32C87.48 45.88 87.3733 45.52 87.16 45.24C86.96 44.9467 86.68 44.7 86.32 44.5C85.96 44.3 85.5467 44.1267 85.08 43.98C84.6133 43.82 84.12 43.6533 83.6 43.48C82.4933 43.1067 81.66 42.6333 81.1 42.06C80.54 41.4733 80.26 40.6933 80.26 39.72C80.26 38.9067 80.4533 38.2067 80.84 37.62C81.2267 37.0333 81.7667 36.58 82.46 36.26C83.1667 35.9267 83.98 35.76 84.9 35.76C85.8333 35.76 86.6467 35.9267 87.34 36.26C88.0467 36.5933 88.6 37.06 89 37.66C89.4133 38.2467 89.6267 38.9533 89.64 39.78H87.08C87.0667 39.4333 86.9733 39.1133 86.8 38.82C86.6267 38.5133 86.3733 38.2667 86.04 38.08C85.72 37.88 85.3267 37.78 84.86 37.78C84.46 37.7667 84.1 37.8333 83.78 37.98C83.4733 38.1133 83.2267 38.3133 83.04 38.58C82.8667 38.8333 82.78 39.1533 82.78 39.54C82.78 39.9133 82.86 40.2267 83.02 40.48C83.1933 40.72 83.44 40.9267 83.76 41.1C84.08 41.26 84.4533 41.4133 84.88 41.56C85.3067 41.7067 85.7733 41.8667 86.28 42.04C86.9733 42.2667 87.6 42.5467 88.16 42.88C88.7333 43.2 89.1867 43.62 89.52 44.14C89.8533 44.66 90.02 45.3333 90.02 46.16C90.02 46.88 89.8333 47.5533 89.46 48.18C89.0867 48.7933 88.54 49.2933 87.82 49.68C87.1 50.0533 86.2 50.24 85.12 50.24ZM95.4136 50.24C94.6003 50.24 93.9003 50.08 93.3136 49.76C92.7403 49.4267 92.3003 48.9333 91.9936 48.28C91.6869 47.6133 91.5336 46.7933 91.5336 45.82V39.92H93.9336V45.58C93.9336 46.4467 94.1136 47.1067 94.4736 47.56C94.8469 48 95.4069 48.22 96.1536 48.22C96.6336 48.22 97.0603 48.1067 97.4336 47.88C97.8203 47.6533 98.1203 47.3267 98.3336 46.9C98.5603 46.46 98.6736 45.9267 98.6736 45.3V39.92H101.074V50H98.9536L98.7736 48.32C98.4669 48.9067 98.0203 49.3733 97.4336 49.72C96.8603 50.0667 96.1869 50.24 95.4136 50.24ZM103.144 54.4V39.92H105.284L105.544 41.38C105.757 41.0867 106.011 40.8133 106.304 40.56C106.611 40.2933 106.977 40.08 107.404 39.92C107.844 39.76 108.344 39.68 108.904 39.68C109.851 39.68 110.684 39.9133 111.404 40.38C112.137 40.8467 112.711 41.48 113.124 42.28C113.537 43.0667 113.744 43.9667 113.744 44.98C113.744 45.9933 113.531 46.9 113.104 47.7C112.691 48.4867 112.117 49.1067 111.384 49.56C110.664 50.0133 109.837 50.24 108.904 50.24C108.144 50.24 107.477 50.1 106.904 49.82C106.344 49.5267 105.891 49.1133 105.544 48.58V54.4H103.144ZM108.404 48.16C108.964 48.16 109.464 48.0267 109.904 47.76C110.344 47.4933 110.684 47.12 110.924 46.64C111.177 46.16 111.304 45.6067 111.304 44.98C111.304 44.34 111.177 43.78 110.924 43.3C110.684 42.82 110.344 42.4467 109.904 42.18C109.464 41.9133 108.964 41.78 108.404 41.78C107.831 41.78 107.324 41.9133 106.884 42.18C106.457 42.4467 106.117 42.82 105.864 43.3C105.624 43.78 105.504 44.3333 105.504 44.96C105.504 45.6 105.624 46.16 105.864 46.64C106.117 47.1067 106.457 47.48 106.884 47.76C107.324 48.0267 107.831 48.16 108.404 48.16ZM115.474 54.4V39.92H117.614L117.874 41.38C118.087 41.0867 118.34 40.8133 118.634 40.56C118.94 40.2933 119.307 40.08 119.734 39.92C120.174 39.76 120.674 39.68 121.234 39.68C122.18 39.68 123.014 39.9133 123.734 40.38C124.467 40.8467 125.04 41.48 125.454 42.28C125.867 43.0667 126.074 43.9667 126.074 44.98C126.074 45.9933 125.86 46.9 125.434 47.7C125.02 48.4867 124.447 49.1067 123.714 49.56C122.994 50.0133 122.167 50.24 121.234 50.24C120.474 50.24 119.807 50.1 119.234 49.82C118.674 49.5267 118.22 49.1133 117.874 48.58V54.4H115.474ZM120.734 48.16C121.294 48.16 121.794 48.0267 122.234 47.76C122.674 47.4933 123.014 47.12 123.254 46.64C123.507 46.16 123.634 45.6067 123.634 44.98C123.634 44.34 123.507 43.78 123.254 43.3C123.014 42.82 122.674 42.4467 122.234 42.18C121.794 41.9133 121.294 41.78 120.734 41.78C120.16 41.78 119.654 41.9133 119.214 42.18C118.787 42.4467 118.447 42.82 118.194 43.3C117.954 43.78 117.834 44.3333 117.834 44.96C117.834 45.6 117.954 46.16 118.194 46.64C118.447 47.1067 118.787 47.48 119.214 47.76C119.654 48.0267 120.16 48.16 120.734 48.16ZM132.503 50.24C131.543 50.24 130.677 50.02 129.903 49.58C129.143 49.1267 128.543 48.5067 128.103 47.72C127.677 46.92 127.463 46.0067 127.463 44.98C127.463 43.9267 127.683 43.0067 128.123 42.22C128.563 41.42 129.163 40.8 129.923 40.36C130.697 39.9067 131.563 39.68 132.523 39.68C133.483 39.68 134.343 39.9067 135.103 40.36C135.877 40.8 136.477 41.4133 136.903 42.2C137.343 42.9867 137.563 43.9067 137.563 44.96C137.563 46.0133 137.343 46.9333 136.903 47.72C136.463 48.5067 135.857 49.1267 135.083 49.58C134.323 50.02 133.463 50.24 132.503 50.24ZM132.503 48.18C132.983 48.18 133.417 48.06 133.803 47.82C134.203 47.58 134.523 47.22 134.763 46.74C135.003 46.26 135.123 45.6667 135.123 44.96C135.123 44.2533 135.003 43.6667 134.763 43.2C134.537 42.72 134.223 42.36 133.823 42.12C133.437 41.88 133.003 41.76 132.523 41.76C132.057 41.76 131.623 41.88 131.223 42.12C130.823 42.36 130.503 42.72 130.263 43.2C130.023 43.6667 129.903 44.2533 129.903 44.96C129.903 45.6667 130.023 46.26 130.263 46.74C130.503 47.22 130.817 47.58 131.203 47.82C131.603 48.06 132.037 48.18 132.503 48.18ZM139.313 50V39.92H141.453L141.673 41.8C141.913 41.36 142.213 40.9867 142.573 40.68C142.933 40.36 143.353 40.1133 143.833 39.94C144.326 39.7667 144.866 39.68 145.453 39.68V42.22H144.613C144.213 42.22 143.833 42.2733 143.473 42.38C143.113 42.4733 142.799 42.6333 142.533 42.86C142.279 43.0733 142.079 43.3733 141.933 43.76C141.786 44.1333 141.713 44.6067 141.713 45.18V50H139.313ZM151.042 50C150.362 50 149.769 49.8933 149.262 49.68C148.769 49.4667 148.382 49.1133 148.102 48.62C147.822 48.1267 147.682 47.46 147.682 46.62V41.94H145.962V39.92H147.682L147.962 37.26H150.082V39.92H152.822V41.94H150.082V46.62C150.082 47.1267 150.189 47.48 150.402 47.68C150.629 47.8667 151.002 47.96 151.522 47.96H152.762V50H151.042ZM164.143 50.24C163.129 50.24 162.209 50.04 161.383 49.64C160.569 49.24 159.916 48.6267 159.423 47.8C158.943 46.9733 158.703 45.9333 158.703 44.68V36H161.103V44.7C161.103 45.46 161.229 46.0867 161.483 46.58C161.736 47.0733 162.089 47.4467 162.543 47.7C163.009 47.94 163.556 48.06 164.183 48.06C164.823 48.06 165.369 47.94 165.823 47.7C166.289 47.4467 166.643 47.0733 166.883 46.58C167.136 46.0867 167.263 45.46 167.263 44.7V36H169.663V44.68C169.663 45.9333 169.416 46.9733 168.923 47.8C168.429 48.6267 167.763 49.24 166.923 49.64C166.083 50.04 165.156 50.24 164.143 50.24ZM175.698 50.24C174.805 50.24 174.025 50.1 173.358 49.82C172.705 49.5267 172.185 49.1267 171.798 48.62C171.425 48.1 171.205 47.5067 171.138 46.84H173.538C173.605 47.12 173.725 47.38 173.898 47.62C174.072 47.8467 174.305 48.0267 174.598 48.16C174.905 48.2933 175.265 48.36 175.678 48.36C176.078 48.36 176.405 48.3067 176.658 48.2C176.912 48.08 177.098 47.9267 177.218 47.74C177.338 47.5533 177.398 47.3533 177.398 47.14C177.398 46.82 177.312 46.5733 177.138 46.4C176.965 46.2267 176.712 46.0933 176.378 46C176.058 45.8933 175.672 45.7933 175.218 45.7C174.738 45.6067 174.272 45.4933 173.818 45.36C173.378 45.2133 172.978 45.0333 172.618 44.82C172.272 44.6067 171.992 44.3333 171.778 44C171.578 43.6667 171.478 43.26 171.478 42.78C171.478 42.1933 171.632 41.6667 171.938 41.2C172.258 40.7333 172.712 40.3667 173.298 40.1C173.898 39.82 174.612 39.68 175.438 39.68C176.612 39.68 177.545 39.9533 178.238 40.5C178.945 41.0333 179.358 41.7867 179.478 42.76H177.198C177.132 42.3867 176.945 42.1 176.638 41.9C176.332 41.6867 175.925 41.58 175.418 41.58C174.898 41.58 174.498 41.68 174.218 41.88C173.952 42.0667 173.818 42.32 173.818 42.64C173.818 42.84 173.898 43.0267 174.058 43.2C174.232 43.36 174.478 43.5 174.798 43.62C175.118 43.7267 175.512 43.8333 175.978 43.94C176.725 44.0867 177.385 44.26 177.958 44.46C178.532 44.66 178.985 44.9533 179.318 45.34C179.652 45.7267 179.818 46.2733 179.818 46.98C179.832 47.62 179.665 48.1867 179.318 48.68C178.985 49.1733 178.512 49.56 177.898 49.84C177.285 50.1067 176.552 50.24 175.698 50.24Z" fill="#252525"/>
<path d="M48.7143 41.2222C50.0783 41.2222 51.3864 40.6837 52.3508 39.7252C53.3153 38.7667 53.8571 37.4667 53.8571 36.1111C53.8571 34.7556 53.3153 33.4555 52.3508 32.497C51.3864 31.5385 50.0783 31 48.7143 31C47.3503 31 46.0422 31.5385 45.0777 32.497C44.1133 33.4555 43.5714 34.7556 43.5714 36.1111C43.5714 37.4667 44.1133 38.7667 45.0777 39.7252C46.0422 40.6837 47.3503 41.2222 48.7143 41.2222ZM60.2857 41.2222C61.3087 41.2222 62.2898 40.8184 63.0131 40.0995C63.7365 39.3806 64.1429 38.4056 64.1429 37.3889C64.1429 36.3722 63.7365 35.3972 63.0131 34.6783C62.2898 33.9594 61.3087 33.5556 60.2857 33.5556C59.2627 33.5556 58.2817 33.9594 57.5583 34.6783C56.8349 35.3972 56.4286 36.3722 56.4286 37.3889C56.4286 38.4056 56.8349 39.3806 57.5583 40.0995C58.2817 40.8184 59.2627 41.2222 60.2857 41.2222ZM43.8929 43.7778C43.1256 43.7778 42.3898 44.0807 41.8473 44.6198C41.3048 45.159 41 45.8903 41 46.6528V46.9722C41 46.9722 41 52.7222 48.7143 52.7222C50.306 52.7222 51.5686 52.4769 52.5714 52.0897V46.9722C52.5714 45.6127 53.4264 44.4524 54.6299 43.9899C54.2829 43.8478 53.911 43.7756 53.5357 43.7778H43.8929ZM53.8571 46.9722C53.8571 46.4639 54.0603 45.9764 54.422 45.6169C54.7837 45.2575 55.2742 45.0556 55.7857 45.0556H66.0714C66.5829 45.0556 67.0735 45.2575 67.4351 45.6169C67.7968 45.9764 68 46.4639 68 46.9722V52.0833C68 52.5917 67.7968 53.0792 67.4351 53.4386C67.0735 53.7981 66.5829 54 66.0714 54H55.7857C55.2742 54 54.7837 53.7981 54.422 53.4386C54.0603 53.0792 53.8571 52.5917 53.8571 52.0833V46.9722ZM55.1429 47.6111V48.8889C55.8248 48.8889 56.4789 48.6196 56.9611 48.1404C57.4434 47.6611 57.7143 47.0111 57.7143 46.3333H56.4286C56.4286 46.6722 56.2931 46.9972 56.052 47.2369C55.8109 47.4765 55.4838 47.6111 55.1429 47.6111ZM66.7143 48.8889V47.6111C66.3733 47.6111 66.0463 47.4765 65.8051 47.2369C65.564 46.9972 65.4286 46.6722 65.4286 46.3333H64.1429C64.1429 47.0111 64.4138 47.6611 64.896 48.1404C65.3782 48.6196 66.0323 48.8889 66.7143 48.8889ZM64.1429 52.7222H65.4286C65.4286 52.3833 65.564 52.0583 65.8051 51.8187C66.0463 51.5791 66.3733 51.4444 66.7143 51.4444V50.1667C66.0323 50.1667 65.3782 50.4359 64.896 50.9152C64.4138 51.3944 64.1429 52.0444 64.1429 52.7222ZM55.1429 50.1667V51.4444C55.4838 51.4444 55.8109 51.5791 56.052 51.8187C56.2931 52.0583 56.4286 52.3833 56.4286 52.7222H57.7143C57.7143 52.0444 57.4434 51.3944 56.9611 50.9152C56.4789 50.4359 55.8248 50.1667 55.1429 50.1667ZM60.9286 51.7639C61.5253 51.7639 62.0976 51.5283 62.5196 51.1089C62.9415 50.6896 63.1786 50.1208 63.1786 49.5278C63.1786 48.9347 62.9415 48.366 62.5196 47.9466C62.0976 47.5273 61.5253 47.2917 60.9286 47.2917C60.3318 47.2917 59.7595 47.5273 59.3376 47.9466C58.9156 48.366 58.6786 48.9347 58.6786 49.5278C58.6786 50.1208 58.9156 50.6896 59.3376 51.1089C59.7595 51.5283 60.3318 51.7639 60.9286 51.7639Z" fill="#252525"/>
</svg>
